<svg width="210" height="40" viewBox="0 0 210 40" fill="none" xmlns="http://www.w3.org/2000/svg">
<g clip-path="url(#clip0_783_1449)">
<path d="M18.9938 14.5068C18.5661 13.2449 16.7332 12.2365 13.5958 12.2365C10.4177 12.2365 6.98995 14.7933 6.20608 18.043C5.23834 22.0359 6.95124 24.7649 10.6577 24.7649C13.7951 24.7649 15.9125 23.7468 16.9325 22.7288H17.1358C16.4545 25.5643 16.23 28.3533 13.0325 29.3675C9.16156 30.5946 3.54866 29.5359 1.28028 25.9959C-0.0745634 23.8804 -0.268112 21.2636 0.312533 18.8578C1.82221 12.5849 7.47382 7.20426 14.97 7.20813C23.1764 7.21781 18.9938 14.5068 18.9938 14.5068Z" fill="#1E1E1E"/>
<path d="M32.6198 7.21606C39.1423 7.21606 41.6256 12.4419 40.2398 18.2077C38.6701 24.7303 33.6765 29.9232 26.6701 29.9232C20.1475 29.9232 17.6546 24.7303 19.0404 18.9722C20.6101 12.4496 25.6133 7.21606 32.6198 7.21606ZM30.9669 12.0432C27.8701 12.0432 25.6772 14.6193 24.814 18.2038C23.7765 22.5103 24.7269 25.0883 28.3114 25.0883C31.4507 25.0883 33.6011 22.5103 34.4546 18.9683C35.5056 14.6232 34.5165 12.0432 30.9669 12.0432Z" fill="#1E1E1E"/>
<path d="M157.934 12.9276C158.101 14.2799 157.992 15.6519 157.615 16.9611L154.393 29.0753C154.339 29.2772 154.22 29.4557 154.054 29.5831C153.889 29.7104 153.686 29.7796 153.477 29.7799H149.954C149.809 29.7797 149.666 29.7462 149.536 29.6819C149.405 29.6176 149.292 29.5243 149.203 29.4091C149.115 29.2939 149.054 29.1599 149.026 29.0175C148.997 28.875 149.002 28.728 149.039 28.5876L149.838 25.5857L151.998 17.4566C152.951 13.8431 151.845 12.196 149.211 12.0934H149.136C147.46 12.1573 146.064 12.8211 145.021 14.1818C145.02 14.185 145.02 14.1883 145.021 14.1915C144.392 15.016 143.891 16.096 143.533 17.4547C143.076 19.1792 141.338 26.1915 141.107 27.1186C141.091 27.1871 141.052 27.2478 140.996 27.29C140.939 27.3321 140.87 27.353 140.8 27.3489C140.039 27.3237 137.742 27.2947 136.816 27.3295C136.773 27.333 136.729 27.326 136.689 27.3093C136.649 27.2925 136.613 27.2664 136.585 27.2331C136.557 27.1999 136.537 27.1604 136.527 27.1179C136.517 27.0754 136.517 27.0312 136.528 26.9889C136.8 25.936 137.076 24.885 137.356 23.836C137.579 22.9921 138.711 18.527 138.924 17.6831C138.942 17.6095 138.963 17.5321 138.984 17.4566C139.34 16.1018 139.41 15.0179 139.213 14.1953V14.1818C138.885 12.8269 137.84 12.1573 136.199 12.0934H136.123C133.435 12.196 131.467 13.8353 130.511 17.4547C130.003 19.3766 128.258 26.2534 127.53 29.0676C127.477 29.2707 127.358 29.4504 127.192 29.5787C127.026 29.7069 126.822 29.7763 126.613 29.776H123.038C122.893 29.7762 122.75 29.7432 122.62 29.6796C122.49 29.616 122.377 29.5235 122.288 29.4091C122.199 29.2947 122.138 29.1615 122.109 29.0198C122.08 28.878 122.084 28.7315 122.12 28.5915L125.143 16.965C125.48 15.6618 126.001 14.4136 126.692 13.2586C126.785 13.1095 126.885 12.9624 126.974 12.8173C127.063 12.6721 127.168 12.5444 127.259 12.4128C127.321 12.3237 127.391 12.2289 127.453 12.1418C127.514 12.0547 127.586 11.9695 127.646 11.8882C127.706 11.807 127.778 11.7218 127.84 11.6444L128.049 11.4005C130.178 9.01792 133.34 7.27598 137.403 7.21985C140.174 7.26049 142.104 8.1005 143.32 9.3934C143.32 9.3934 143.331 9.3934 143.331 9.40889L143.36 9.38953C145.447 7.98097 147.907 7.22566 150.425 7.21985C153.853 7.16953 157.412 9.34308 157.934 12.9276Z" fill="#1E1E1E"/>
<path d="M201.245 7.21606C193.363 7.21606 187.503 12.7864 185.838 19.6709C184.452 25.4212 187.673 29.5419 193.605 29.5419C197.089 29.5419 199.851 27.6857 200.767 25.9186L200.627 26.4993C200.571 26.7238 200.463 27.3586 200.376 27.7206C200.323 28.129 200.203 28.6264 200.116 28.9903C199.267 32.5206 196.772 34.6032 192.374 34.6032C188.89 34.6032 186.339 33.5174 185.261 31.9767H184.988L184.323 34.7386C183.626 37.6419 186.479 40.0845 191.507 40.0845C199.388 40.0845 204.783 34.6032 206.254 28.489C206.447 27.6741 206.722 26.3599 206.917 25.3651C207.132 24.2774 207.425 22.8741 207.62 22.0574L208.623 17.8922C210.14 11.6561 207.314 7.21606 201.245 7.21606ZM202.479 18.2657C201.543 22.1619 198.825 24.4264 195.788 24.4264C192.885 24.4264 191.509 22.0709 192.274 18.9006C193.156 15.2328 196.145 12.6045 199.268 12.6045C201.941 12.6045 203.395 14.4606 202.479 18.2657Z" fill="#1E1E1E"/>
<path d="M93.8697 7.49072C89.0891 7.49072 85.2472 9.93911 82.7968 13.5701H88.8375C89.7837 12.7477 90.9961 12.2966 92.2497 12.3004C95.7762 12.3004 96.7613 14.8669 95.722 19.1946C94.8723 22.721 92.7297 25.2894 89.6059 25.2894C88.1213 25.2894 87.0897 24.8443 86.4684 24.0159H80.153C80.8013 27.5346 83.3813 30.0972 87.9549 30.0972C94.9226 30.0972 99.9026 24.9256 101.467 18.432C102.847 12.701 100.371 7.49072 93.8697 7.49072ZM87.0375 15.8772H81.502C81.2351 16.4511 81.0011 17.0398 80.8013 17.6404H86.3252C86.5129 17.0326 86.7538 16.4426 87.0452 15.8772H87.0375ZM85.8162 19.9417H80.1994C80.0943 20.5249 80.0297 21.1147 80.0059 21.7068H85.7407C85.7104 21.1184 85.7383 20.5285 85.8239 19.9456L85.8162 19.9417Z" fill="#E30000"/>
<path d="M115.936 7.49072C111.155 7.49072 107.31 9.93911 104.859 13.5701H110.884C111.831 12.7489 113.043 12.298 114.297 12.3004C117.823 12.3004 118.81 14.8669 117.767 19.1946C116.917 22.721 114.779 25.2894 111.651 25.2894C110.166 25.2894 109.135 24.8443 108.513 24.0159H102.206C102.852 27.5346 105.438 30.0972 110.01 30.0972C116.977 30.0972 121.957 24.9256 123.519 18.432C124.897 12.701 122.426 7.49072 115.936 7.49072ZM109.104 15.8772H103.562C103.294 16.4504 103.06 17.0392 102.862 17.6404H108.388C108.572 17.0326 108.81 16.4425 109.1 15.8772H109.104ZM107.879 19.9417H102.252C102.146 20.5248 102.081 21.1146 102.059 21.7068H107.791C107.764 21.1184 107.792 20.5288 107.875 19.9456L107.879 19.9417Z" fill="#E30000"/>
<path d="M61.1745 16.9629L60.1932 21.0274L58.2577 29.0906C58.2081 29.2975 58.0902 29.4817 57.9231 29.6134C57.7559 29.7451 57.5493 29.8166 57.3365 29.8164H53.9474C53.8047 29.8166 53.6638 29.7845 53.5352 29.7226C53.4066 29.6607 53.2936 29.5706 53.2047 29.459C53.1157 29.3473 53.0532 29.2171 53.0216 29.0779C52.99 28.9387 52.9902 28.7942 53.0223 28.6551L55.5674 17.4622C56.4636 13.7345 55.2229 12.097 52.3952 12.097C50.0184 12.097 47.9436 13.899 47.1887 17.0538L44.2855 29.1042C44.2356 29.3109 44.1176 29.4949 43.9505 29.6265C43.7834 29.7582 43.5769 29.8298 43.3642 29.83H39.9636C39.8209 29.8302 39.68 29.7981 39.5514 29.7362C39.4229 29.6743 39.31 29.5842 39.2212 29.4725C39.1324 29.3608 39.07 29.2305 39.0387 29.0913C39.0074 28.9521 39.0079 28.8076 39.0403 28.6687L41.7887 16.6822C42.9113 12.0119 47.1384 7.22156 54.0171 7.22156C59.2255 7.21576 62.6803 10.688 61.1745 16.9629Z" fill="#1E1E1E"/>
<path d="M185.151 16.9629L182.228 29.0964C182.179 29.3033 182.061 29.4875 181.893 29.6192C181.726 29.7509 181.52 29.8224 181.307 29.8222H177.9C177.758 29.8221 177.617 29.7898 177.489 29.7278C177.36 29.6658 177.248 29.5756 177.159 29.464C177.07 29.3524 177.008 29.2223 176.976 29.0832C176.945 28.9442 176.945 28.7998 176.977 28.6609L179.544 17.4622C180.442 13.7345 179.197 12.097 176.371 12.097C173.995 12.097 171.92 13.899 171.165 17.0519L168.262 29.1042C168.212 29.3109 168.094 29.4949 167.927 29.6265C167.76 29.7582 167.553 29.8298 167.34 29.83H163.951C163.809 29.8298 163.668 29.7975 163.54 29.7355C163.411 29.6735 163.299 29.5833 163.21 29.4718C163.121 29.3602 163.059 29.23 163.027 29.091C162.996 28.9519 162.996 28.8076 163.028 28.6687L165.765 16.6803C166.889 12.0119 171.115 7.22156 177.995 7.22156C183.196 7.21576 186.658 10.688 185.151 16.9629Z" fill="#1E1E1E"/>
<path d="M162.886 12.7032C164.39 12.7032 165.946 11.4451 166.341 9.94316C166.736 8.44122 165.836 7.21606 164.334 7.21606C162.832 7.21606 161.249 8.43929 160.85 9.94316C160.451 11.447 161.384 12.7032 162.886 12.7032Z" fill="#1E1E1E"/>
<path d="M165.388 13.5721L161.289 29.1179C161.236 29.32 161.117 29.4989 160.952 29.6264C160.786 29.7539 160.583 29.8228 160.374 29.8224H156.996C156.852 29.8225 156.71 29.7899 156.581 29.7269C156.452 29.664 156.339 29.5725 156.25 29.4592C156.161 29.346 156.1 29.214 156.07 29.0734C156.04 28.9327 156.042 28.7871 156.077 28.6475L156.479 27.0237L158.587 18.554L159.524 14.9985L159.901 13.5585C159.977 13.2721 160.337 13.0979 160.536 13.2566C161.099 13.7194 161.803 13.9779 162.532 13.9901C163.472 13.9998 164.32 13.603 164.905 13.274C165.185 13.1114 165.464 13.2817 165.388 13.5721Z" fill="#1E1E1E"/>
<path d="M81.2746 10.1075C80.8507 11.8668 79.4243 13.9591 76.9449 16.0959L69.8204 22.2062C68.8159 23.0752 67.7417 24.0855 67.014 25.0107H77.3243C77.4027 25.0108 77.48 25.0286 77.5504 25.063C77.6209 25.0974 77.6826 25.1473 77.7309 25.209C77.7792 25.2707 77.8128 25.3426 77.8292 25.4193C77.8456 25.4959 77.8444 25.5753 77.8256 25.6513L77.3765 27.4591L76.9895 28.9881C76.9295 29.2276 76.7912 29.4401 76.5965 29.592C76.4019 29.7438 76.1621 29.8262 75.9153 29.8262H62.9204C60.3249 29.8262 59.3611 28.6126 59.783 26.8533C60.1972 25.1365 62.0185 22.961 64.7069 20.6597L71.3901 14.4662C72.2398 13.7133 73.4998 12.8017 74.0572 12.0468H64.012C63.9034 12.047 63.7976 12.0126 63.7099 11.9485C63.6222 11.8845 63.5572 11.7942 63.5243 11.6907C63.4932 11.6003 63.4892 11.5027 63.5127 11.4101L63.654 10.843L63.9753 9.55779L64.343 8.07327C64.4016 7.83309 64.5391 7.61954 64.7335 7.46686C64.928 7.31419 65.168 7.23125 65.4153 7.23134H78.4507C81.0965 7.21392 81.5862 8.80682 81.2746 10.1075Z" fill="#1E1E1E"/>
</g>
<defs>
<clipPath id="clip0_783_1449">
<rect width="209.032" height="40" fill="white"/>
</clipPath>
</defs>
</svg>
