<svg width="293" height="56" viewBox="0 0 293 56" fill="none" xmlns="http://www.w3.org/2000/svg">
<g clip-path="url(#clip0_783_1199)">
<path d="M26.5898 20.3095C25.991 18.5428 23.4249 17.1311 19.0325 17.1311C14.5832 17.1311 9.78437 20.7105 8.68695 25.2601C7.33211 30.8502 9.73018 34.6708 14.9192 34.6708C19.3116 34.6708 22.276 33.2455 23.704 31.8202H23.9885C23.0347 35.7899 22.7204 39.6945 18.244 41.1144C12.8246 42.8323 4.96657 41.3502 1.79082 36.3942C-0.105951 33.4325 -0.376919 29.769 0.435984 26.4009C2.54953 17.6188 10.4618 10.0859 20.9564 10.0913C32.4454 10.1049 26.5898 20.3095 26.5898 20.3095Z" fill="white"/>
<path d="M45.6685 10.1025C54.8001 10.1025 58.2766 17.4187 56.3365 25.4908C54.1389 34.6224 47.1479 41.8925 37.3389 41.8925C28.2073 41.8925 24.7172 34.6224 26.6574 26.5611C28.8549 17.4295 35.8594 10.1025 45.6685 10.1025ZM43.3544 16.8605C39.0189 16.8605 35.9488 20.4671 34.7403 25.4854C33.2879 31.5144 34.6184 35.1237 39.6367 35.1237C44.0318 35.1237 47.0423 31.5144 48.2372 26.5557C49.7086 20.4725 48.3239 16.8605 43.3544 16.8605Z" fill="white"/>
<path d="M221.106 18.0986C221.339 19.9918 221.187 21.9126 220.659 23.7456L216.148 40.7054C216.072 40.988 215.906 41.2379 215.674 41.4163C215.442 41.5946 215.158 41.6915 214.866 41.6918H209.934C209.731 41.6916 209.53 41.6446 209.348 41.5546C209.166 41.4646 209.006 41.3339 208.883 41.1727C208.759 41.0114 208.674 40.8238 208.634 40.6244C208.594 40.425 208.6 40.2191 208.653 40.0226L209.772 35.8199L212.796 24.4393C214.129 19.3803 212.582 17.0744 208.894 16.9307H208.788C206.442 17.0202 204.488 17.9496 203.027 19.8545C203.026 19.8589 203.026 19.8636 203.027 19.868C202.147 21.0224 201.445 22.5343 200.944 24.4365C200.304 26.8509 197.871 36.668 197.548 37.966C197.526 38.0619 197.471 38.1469 197.392 38.2059C197.313 38.2649 197.216 38.2942 197.118 38.2884C196.053 38.2532 192.836 38.2125 191.541 38.2613C191.48 38.2661 191.419 38.2564 191.363 38.233C191.306 38.2095 191.256 38.173 191.217 38.1264C191.177 38.0798 191.15 38.0245 191.136 37.965C191.122 37.9055 191.122 37.8436 191.137 37.7844C191.518 36.3103 191.905 34.839 192.297 33.3703C192.609 32.1889 194.194 25.9377 194.492 24.7563C194.516 24.6533 194.546 24.5449 194.576 24.4393C195.074 22.5425 195.172 21.0251 194.896 19.8734V19.8545C194.438 17.9577 192.974 17.0202 190.677 16.9307H190.571C186.807 17.0744 184.051 19.3694 182.713 24.4365C182.003 27.1273 179.559 36.7547 178.54 40.6946C178.466 40.9789 178.3 41.2306 178.067 41.4101C177.835 41.5896 177.549 41.6868 177.256 41.6863H172.251C172.048 41.6866 171.848 41.6405 171.666 41.5515C171.484 41.4624 171.325 41.3328 171.201 41.1727C171.077 41.0125 170.992 40.8261 170.951 40.6276C170.91 40.4292 170.915 40.2241 170.966 40.028L175.199 23.751C175.669 21.9265 176.399 20.179 177.367 18.562C177.497 18.3533 177.638 18.1474 177.762 17.9442C177.887 17.7409 178.033 17.5621 178.161 17.3778C178.247 17.2532 178.345 17.1204 178.432 16.9985C178.518 16.8765 178.619 16.7573 178.703 16.6435C178.787 16.5297 178.887 16.4105 178.974 16.3021L179.266 15.9607C182.247 12.6251 186.674 10.1863 192.362 10.1078C196.242 10.1647 198.944 11.3407 200.646 13.1507C200.646 13.1507 200.662 13.1507 200.662 13.1724L200.702 13.1453C203.625 11.1733 207.068 10.1159 210.593 10.1078C215.392 10.0373 220.375 13.0803 221.106 18.0986Z" fill="white"/>
<path d="M281.742 10.1025C270.709 10.1025 262.504 17.901 260.173 27.5393C258.233 35.5898 262.742 41.3587 271.047 41.3587C275.925 41.3587 279.791 38.7601 281.073 36.2862L280.878 37.0991C280.799 37.4134 280.648 38.3022 280.526 38.8089C280.453 39.3806 280.285 40.077 280.163 40.5864C278.973 45.5289 275.48 48.4445 269.324 48.4445C264.447 48.4445 260.875 46.9243 259.366 44.7674H258.984L258.052 48.6342C257.076 52.6987 261.07 56.1183 268.11 56.1183C279.144 56.1183 286.696 48.4445 288.755 39.8846C289.026 38.7438 289.411 36.904 289.684 35.5112C289.985 33.9884 290.394 32.0238 290.668 30.8803L292.072 25.0491C294.196 16.3185 290.24 10.1025 281.742 10.1025ZM283.471 25.5721C282.16 31.0267 278.355 34.197 274.104 34.197C270.039 34.197 268.113 30.8993 269.183 26.4609C270.419 21.326 274.602 17.6463 278.976 17.6463C282.718 17.6463 284.753 20.2449 283.471 25.5721Z" fill="white"/>
<path d="M131.415 10.4871C124.722 10.4871 119.344 13.9148 115.913 18.9982H124.37C125.695 17.8468 127.392 17.2152 129.147 17.2206C134.084 17.2206 135.464 20.8136 134.008 26.8725C132.819 31.8095 129.819 35.4053 125.446 35.4053C123.368 35.4053 121.923 34.782 121.053 33.6223H112.212C113.12 38.5485 116.732 42.1361 123.135 42.1361C132.889 42.1361 139.861 34.8958 142.051 25.8049C143.983 17.7815 140.517 10.4871 131.415 10.4871ZM121.85 22.2281H114.1C113.727 23.0316 113.399 23.8558 113.12 24.6966H120.853C121.116 23.8457 121.453 23.0197 121.861 22.2281H121.85ZM120.14 27.9184H112.277C112.13 28.7349 112.039 29.5606 112.006 30.3896H120.035C119.992 29.5659 120.031 28.7399 120.151 27.9238L120.14 27.9184Z" fill="#E30000"/>
<path d="M162.311 10.4871C155.618 10.4871 150.234 13.9148 146.804 18.9982H155.239C156.565 17.8485 158.261 17.2172 160.016 17.2206C164.953 17.2206 166.335 20.8136 164.875 26.8725C163.685 31.8095 160.691 35.4053 156.312 35.4053C154.234 35.4053 152.789 34.782 151.92 33.6223H143.089C143.994 38.5485 147.614 42.1361 154.014 42.1361C163.769 42.1361 170.741 34.8958 172.928 25.8049C174.857 17.7815 171.397 10.4871 162.311 10.4871ZM152.746 22.2281H144.988C144.612 23.0306 144.285 23.8549 144.007 24.6966H151.743C152.002 23.8457 152.335 23.0195 152.741 22.2281H152.746ZM151.031 27.9184H143.154C143.005 28.7347 142.915 29.5605 142.883 30.3896H150.909C150.871 29.5659 150.91 28.7403 151.025 27.9238L151.031 27.9184Z" fill="#E30000"/>
<path d="M85.6436 23.7479L84.2697 29.4382L81.5601 40.7268C81.4906 41.0165 81.3256 41.2743 81.0915 41.4587C80.8575 41.6431 80.5682 41.7432 80.2703 41.7429H75.5256C75.3258 41.7431 75.1285 41.6982 74.9485 41.6116C74.7684 41.5249 74.6103 41.3988 74.4858 41.2425C74.3613 41.0862 74.2736 40.9038 74.2294 40.709C74.1852 40.5141 74.1855 40.3118 74.2304 40.1171L77.7936 24.447C79.0482 19.2282 77.3113 16.9358 73.3525 16.9358C70.025 16.9358 67.1202 19.4585 66.0634 23.8753L61.9989 40.7457C61.929 41.0352 61.7638 41.2928 61.5299 41.4771C61.296 41.6614 61.0069 41.7617 60.7091 41.7619H55.9482C55.7484 41.7622 55.5512 41.7173 55.3712 41.6307C55.1913 41.544 55.0332 41.4178 54.9089 41.2614C54.7846 41.1051 54.6973 40.9226 54.6534 40.7277C54.6096 40.5329 54.6103 40.3306 54.6557 40.1361L58.5034 23.355C60.075 16.8166 65.993 10.1101 75.6232 10.1101C82.9149 10.102 87.7517 14.9632 85.6436 23.7479Z" fill="white"/>
<path d="M259.211 23.7479L255.119 40.7349C255.05 41.0246 254.884 41.2825 254.65 41.4668C254.416 41.6512 254.127 41.7513 253.829 41.751H249.06C248.861 41.7508 248.664 41.7056 248.484 41.6188C248.304 41.532 248.146 41.4058 248.022 41.2495C247.898 41.0933 247.811 40.9111 247.766 40.7164C247.722 40.5218 247.723 40.3197 247.768 40.1252L251.361 24.447C252.618 19.2282 250.876 16.9358 246.919 16.9358C243.592 16.9358 240.687 19.4585 239.63 23.8726L235.566 40.7457C235.496 41.0352 235.331 41.2928 235.097 41.4771C234.863 41.6614 234.574 41.7617 234.276 41.7619H229.531C229.332 41.7617 229.135 41.7165 228.955 41.6296C228.776 41.5428 228.618 41.4166 228.493 41.2604C228.369 41.1042 228.282 40.9219 228.238 40.7273C228.194 40.5326 228.194 40.3305 228.239 40.1361L232.07 23.3523C233.645 16.8166 239.56 10.1101 249.193 10.1101C256.474 10.102 261.321 14.9632 259.211 23.7479Z" fill="white"/>
<path d="M228.038 17.7845C230.144 17.7845 232.322 16.0232 232.875 13.9205C233.428 11.8178 232.168 10.1025 230.065 10.1025C227.962 10.1025 225.746 11.8151 225.188 13.9205C224.63 16.0259 225.936 17.7845 228.038 17.7845Z" fill="white"/>
<path d="M231.542 19.0009L225.803 40.765C225.729 41.0481 225.563 41.2985 225.331 41.477C225.099 41.6554 224.814 41.7519 224.521 41.7513H219.793C219.592 41.7515 219.393 41.7058 219.212 41.6177C219.031 41.5296 218.872 41.4014 218.748 41.2429C218.624 41.0843 218.538 40.8996 218.496 40.7027C218.454 40.5058 218.457 40.3019 218.506 40.1066L219.07 37.8331L222.02 25.9756L223.332 20.9979L223.86 18.9819C223.966 18.5809 224.47 18.337 224.749 18.5592C225.538 19.2071 226.522 19.5691 227.543 19.5862C228.86 19.5997 230.046 19.0442 230.865 18.5836C231.258 18.356 231.648 18.5944 231.542 19.0009Z" fill="white"/>
<path d="M113.784 14.1504C113.191 16.6135 111.194 19.5427 107.723 22.5342L97.7486 31.0886C96.3423 32.3053 94.8384 33.7197 93.8195 35.0149H108.254C108.364 35.015 108.472 35.0401 108.571 35.0882C108.669 35.1363 108.756 35.2062 108.823 35.2926C108.891 35.379 108.938 35.4796 108.961 35.5869C108.984 35.6942 108.982 35.8053 108.956 35.9118L108.327 38.4427L107.785 40.5833C107.701 40.9186 107.508 41.2161 107.235 41.4287C106.963 41.6413 106.627 41.7567 106.281 41.7566H88.0886C84.4549 41.7566 83.1055 40.0577 83.6962 37.5946C84.2761 35.1911 86.8259 32.1454 90.5896 28.9236L99.9461 20.2526C101.136 19.1986 102.9 17.9223 103.68 16.8655H89.6168C89.4648 16.8658 89.3167 16.8176 89.1939 16.7279C89.0711 16.6383 88.9801 16.5118 88.934 16.3669C88.8905 16.2403 88.8848 16.1038 88.9177 15.974L89.1156 15.1801L89.5654 13.3809L90.0802 11.3026C90.1622 10.9663 90.3547 10.6673 90.6269 10.4536C90.8991 10.2398 91.2353 10.1237 91.5814 10.1239H109.831C113.535 10.0995 114.221 12.3295 113.784 14.1504Z" fill="white"/>
</g>
<defs>
<clipPath id="clip0_783_1199">
<rect width="292.645" height="56" fill="white"/>
</clipPath>
</defs>
</svg>
